<?xml version="1.0" standalone="no"?><!DOCTYPE svg PUBLIC "-//W3C//DTD SVG 1.1//EN" "http://www.w3.org/Graphics/SVG/1.1/DTD/svg11.dtd"><svg class="icon" width="200px" height="200.00px" viewBox="0 0 1024 1024" version="1.1" xmlns="http://www.w3.org/2000/svg"><path d="M554.666667 106.666667V191.445333l46.229333 13.354667a318.08 318.08 0 0 1 65.536 26.986667l42.154667 23.296 34.048-34.048 25.813333-25.813334 60.330667 60.330667-25.813334 25.813333-34.048 34.048 23.296 42.154667c11.178667 20.245333 20.266667 42.282667 26.986667 65.536L832.554667 469.333333H917.333333v85.333334H832.554667l-13.354667 46.229333a317.610667 317.610667 0 0 1-26.986667 65.536l-23.296 42.154667 34.048 34.048 25.813334 25.813333-60.330667 60.330667-25.813333-25.813334-34.048-34.048-42.154667 23.296c-20.245333 11.178667-42.282667 20.266667-65.536 26.965334L554.666667 832.533333V917.333333h-85.333334V832.533333l-46.229333-13.354666a319.210667 319.210667 0 0 1-65.536-26.965334l-42.154667-23.296-34.048 34.048-25.813333 25.813334-60.330667-60.330667 25.813334-25.813333 34.048-34.048-23.296-42.154667a317.546667 317.546667 0 0 1-26.965334-65.536L191.445333 554.666667H106.666667v-85.333334H191.466667l13.354666-46.229333a318.72 318.72 0 0 1 26.965334-65.536l23.296-42.154667-34.048-34.048-25.813334-25.813333 60.330667-60.330667 25.813333 25.813334 34.048 34.048 42.154667-23.296c20.245333-11.178667 42.282667-20.266667 65.536-26.965334L469.333333 191.466667V106.666667h85.333334m21.333333-64h-128a42.666667 42.666667 0 0 0-42.666667 42.666666v58.005334a380.650667 380.650667 0 0 0-78.72 32.448l-40.896-40.896a42.496 42.496 0 0 0-30.165333-12.501334 42.453333 42.453333 0 0 0-30.165333 12.501334l-90.496 90.496a42.666667 42.666667 0 0 0 0 60.330666L175.786667 326.613333A380.650667 380.650667 0 0 0 143.338667 405.333333H85.333333a42.666667 42.666667 0 0 0-42.666666 42.666667v128a42.666667 42.666667 0 0 0 42.666666 42.666667h58.005334a380.650667 380.650667 0 0 0 32.448 78.72l-40.896 40.896a42.666667 42.666667 0 0 0 0 60.330666l90.496 90.496c8.341333 8.341333 19.242667 12.501333 30.165333 12.501334a42.453333 42.453333 0 0 0 30.165333-12.501334l40.896-40.896A380.650667 380.650667 0 0 0 405.333333 880.661333V938.666667a42.666667 42.666667 0 0 0 42.666667 42.666666h128a42.666667 42.666667 0 0 0 42.666667-42.666666v-57.984a380.650667 380.650667 0 0 0 78.72-32.448l40.896 40.896c8.341333 8.341333 19.242667 12.501333 30.165333 12.501333a42.453333 42.453333 0 0 0 30.165333-12.501333l90.496-90.496a42.666667 42.666667 0 0 0 0-60.330667l-40.896-40.896a380.650667 380.650667 0 0 0 32.448-78.72H938.666667a42.666667 42.666667 0 0 0 42.666666-42.666667v-128a42.666667 42.666667 0 0 0-42.666666-42.666666h-57.984a380.650667 380.650667 0 0 0-32.448-78.72l40.896-40.896a42.666667 42.666667 0 0 0 0-60.330667l-90.496-90.496a42.496 42.496 0 0 0-30.165334-12.501333 42.453333 42.453333 0 0 0-30.165333 12.501333L697.386667 175.765333A383.488 383.488 0 0 0 618.666667 143.317333V85.333333a42.666667 42.666667 0 0 0-42.666667-42.666666z" fill="#000000" /><path d="M512 426.666667c47.061333 0 85.333333 38.272 85.333333 85.333333s-38.272 85.333333-85.333333 85.333333-85.333333-38.272-85.333333-85.333333 38.272-85.333333 85.333333-85.333333m0-64a149.333333 149.333333 0 1 0 0 298.666666 149.333333 149.333333 0 0 0 0-298.666666z" fill="#000000" /></svg>