<?xml version="1.0" standalone="no"?><!DOCTYPE svg PUBLIC "-//W3C//DTD SVG 1.1//EN" "http://www.w3.org/Graphics/SVG/1.1/DTD/svg11.dtd"><svg class="icon" width="200px" height="199.61px" viewBox="0 0 1026 1024" version="1.1" xmlns="http://www.w3.org/2000/svg"><path d="M531.090286 1005.714286c-272.676571 0-494.518857-221.842286-494.518857-494.518857 0-272.676571 221.842286-494.518857 494.518857-494.518857s494.518857 221.842286 494.518857 494.518857C1025.536 783.872 803.693714 1005.714286 531.090286 1005.714286zM531.090286 89.892571C298.715429 89.892571 109.714286 278.893714 109.714286 511.195429c0 232.374857 189.001143 421.376 421.376 421.376s421.376-189.001143 421.376-421.376C952.393143 278.893714 763.465143 89.892571 531.090286 89.892571z" fill="#000000" /><path d="M714.459429 807.277714 475.428571 563.492571 475.428571 182.857143 548.571429 182.857143 548.571429 533.650286 766.683429 756.150857Z" fill="#000000" /></svg>